<svg width="225" height="88" viewBox="0 0 225 88" fill="none" xmlns="http://www.w3.org/2000/svg">
<path d="M8 42.2128V16H16.0908V42.2128H8ZM13.5799 42.2128V37.566H36.4016V42.2128H13.5799ZM13.5799 31.0922V26.8426H33.6116V31.0922H13.5799ZM13.5799 20.6071V16H36.29V20.6071H13.5799Z" fill="#1A3732"/>
<path d="M39.8663 42.2128V16H51.9747L62.2416 35.739H62.5206L72.5644 16H84.1148V42.2128H76.4703L76.9725 21.7986H76.3587L65.199 42.2128H58.5031L47.5108 21.7986H46.897L47.3992 42.2128H39.8663Z" fill="#1A3732"/>
<path d="M89.4967 42.2128V16H97.6992V42.2128H89.4967Z" fill="#1A3732"/>
<path d="M103.054 42.2128V16H111.089V42.2128H103.054ZM104.728 42.2128V37.4071H126.657V42.2128H104.728Z" fill="#1A3732"/>
<path d="M128.599 42.2128V16H136.802V42.2128H128.599Z" fill="#1A3732"/>
<path d="M142.157 42.2128V16H150.248V42.2128H142.157ZM147.737 42.2128V37.566H170.558V42.2128H147.737ZM147.737 31.0922V26.8426H167.768V31.0922H147.737ZM147.737 20.6071V16H170.447V20.6071H147.737Z" fill="#1A3732"/>
<path d="M8 72V45.7872H23.2889C25.558 45.7872 27.5854 45.9329 29.3709 46.2241C31.1565 46.4889 32.6817 46.8993 33.9464 47.4553C35.2484 48.0113 36.2342 48.7395 36.9038 49.6397C37.6106 50.5135 37.9639 51.5593 37.9639 52.7773C37.9639 53.8099 37.6478 54.7102 37.0154 55.478C36.4202 56.2459 35.4716 56.8681 34.1696 57.3447C32.9049 57.8213 31.2309 58.1522 29.1477 58.3376V58.9333C32.6817 59.1187 35.267 59.7541 36.9038 60.8397C38.5777 61.8988 39.4147 63.3286 39.4147 65.1291C39.4147 66.6383 38.8567 67.9092 37.7407 68.9418C36.662 69.948 35.0252 70.7158 32.8305 71.2454C30.6357 71.7485 27.9202 72 24.6838 72H8ZM15.6444 67.3929H24.5722C26.953 67.3929 28.7199 67.1414 29.8731 66.6383C31.0263 66.1087 31.6029 65.3012 31.6029 64.2156C31.6029 62.9712 30.8775 62.0444 29.4267 61.4355C27.976 60.8 25.7812 60.4823 22.8425 60.4823H15.6444V67.3929ZM15.6444 56.9078H21.6707C24.5722 56.9078 26.6926 56.6298 28.0318 56.0738C29.4081 55.4913 30.0963 54.644 30.0963 53.5319C30.0963 52.4199 29.4825 51.6123 28.255 51.1092C27.0274 50.5797 25.1488 50.3149 22.6193 50.3149H15.6444V56.9078Z" fill="#1A3732"/>
<path d="M43.2993 72V45.7872H58.2533C60.2621 45.7872 62.0849 45.9064 63.7216 46.1447C65.3584 46.3565 66.8092 46.6742 68.0739 47.0979C69.3387 47.5215 70.3989 48.0511 71.2545 48.6865C72.1472 49.2955 72.8168 50.0104 73.2632 50.8312C73.7096 51.6255 73.9328 52.5125 73.9328 53.4922C73.9328 54.4189 73.7282 55.2662 73.319 56.034C72.9098 56.7754 72.296 57.4241 71.4776 57.9801C70.6593 58.5362 69.6363 58.9995 68.4087 59.3702C67.1811 59.7144 65.749 59.9527 64.1122 60.0851V60.6809C66.0094 60.8132 67.5159 61.131 68.6319 61.634C69.7851 62.1106 70.6779 62.7593 71.3103 63.5801C71.9798 64.4009 72.5564 65.4203 73.04 66.6383L75.272 72H66.4L64.6702 67.0355C64.3354 65.9764 63.8518 65.1556 63.2194 64.5731C62.587 63.9641 61.7873 63.5404 60.8201 63.3021C59.8529 63.0373 58.6811 62.905 57.3048 62.905H51.3343V72H43.2993ZM51.3343 58.6156H57.6954C60.2249 58.6156 62.1779 58.2714 63.5542 57.583C64.9306 56.8946 65.6188 55.8222 65.6188 54.366C65.6188 52.9362 64.9678 51.8903 63.6658 51.2284C62.4011 50.54 60.4853 50.1957 57.9185 50.1957H51.3343V58.6156Z" fill="#1A3732"/>
<path d="M75.4751 72L88.0856 45.7872H99.8034L112.414 72H103.709L94.3909 50.3149H93.5539L84.1797 72H75.4751ZM82.5616 66.8369V62.9447H106.499V66.8369H82.5616Z" fill="#1A3732"/>
<path d="M114.715 72V45.7872H125.205L141.889 64.3348H142.503L142.001 45.7872H149.813V72H140.327L122.694 52.5787H122.081L122.583 72H114.715Z" fill="#1A3732"/>
<path d="M159.041 72V67.3532H169.755C171.838 67.3532 173.567 67.0355 174.944 66.4C176.32 65.7381 177.362 64.7849 178.069 63.5404C178.775 62.296 179.129 60.7735 179.129 58.973C179.129 57.4903 178.906 56.2194 178.459 55.1603C178.013 54.0747 177.343 53.1877 176.45 52.4993C175.595 51.8109 174.497 51.2946 173.158 50.9504C171.856 50.6061 170.313 50.434 168.527 50.434H159.041V45.7872H168.248C172.712 45.7872 176.357 46.3035 179.185 47.3362C182.012 48.3688 184.095 49.8515 185.434 51.7844C186.773 53.6908 187.443 55.9811 187.443 58.6553C187.443 60.6676 187.108 62.4151 186.438 63.8979C185.769 65.3806 184.857 66.6383 183.704 67.6709C182.588 68.7035 181.286 69.5376 179.798 70.173C178.31 70.8085 176.729 71.2719 175.055 71.5631C173.381 71.8544 171.689 72 169.978 72H159.041ZM155.191 72V45.7872H163.226V72H155.191Z" fill="#1A3732"/>
<path d="M198.084 72V45.7872H206.119V72H198.084ZM187.203 50.5929V45.7872H217V50.5929H187.203Z" fill="#1A3732"/>
</svg>
